# xmcd CD database file
#
# Track frame offsets:
#	150
#	54737
#	88970
#	120804
#	161935
#	198322
#	234702
#
# Disc length: 3604 seconds
#
# Revision: 0
# Processed by: cddbd v1.5.2PL0 Copyright (c) Steve Scherf et al.
# Submitted via: CDex 1.70
#
DISCID=5c0e1207
DTITLE=Dwight Trible - Horace
DYEAR=2001
DGENRE=Jazz
TTITLE0=John Coltrane
TTITLE1=	Out Of This World
TTITLE2=The Statesman
TTITLE3=Soul Eyes
TTITLE4=Mothership
TTITLE5=Papa Lean Griot
TTITLE6=Return To The Ethers
EXTD=YEAR: 2001
EXTT0=
EXTT1=
EXTT2=
EXTT3=
EXTT4=
EXTT5=
EXTT6=
PLAYORDER=
